<?xml version="1.0" encoding="utf-8"?>
<!-- Generator: Adobe Illustrator 19.2.1, SVG Export Plug-In . SVG Version: 6.00 Build 0)  -->
<svg version="1.1" id="layer" xmlns="http://www.w3.org/2000/svg" xmlns:xlink="http://www.w3.org/1999/xlink" x="0px" y="0px"
	 viewBox="0 0 652 652" style="enable-background:new 0 0 652 652;" xml:space="preserve">
<g>
	<g transform="translate(-733.000000, -317.000000)">
		<g transform="translate(733.000000, 317.000000)">
			<path id="Fill-1" d="M30.6,321.5c0,18.2,13,31.6,30.1,31.6c15.8,0,23.8-9.8,26.3-14.7h9c-2.3,7.4-13,23.1-35.3,23.1
				c-22.4,0-39.4-17-39.4-40.1c0-22.9,17.2-40.1,39.4-40.1s33,15.3,35.4,23.2h-9.2c-2.8-5-10.5-14.8-26.2-14.8
				C43.6,289.6,30.6,303.2,30.6,321.5"/>
			<path id="Fill-2" d="M140.2,328.7L127,294l-13.2,34.7H140.2z M143.3,336.7h-32.6l-8.9,23.5h-8.9l29.7-77.6h8.8l29.9,77.6h-9.1
				L143.3,336.7L143.3,336.7z"/>
			<polyline id="Fill-3" points="204.9,360.2 166.1,360.2 166.1,282.6 175.2,282.6 175.2,351.9 204.9,351.9 204.9,360.2 			"/>
			<polyline id="Fill-4" points="230,360.2 221.5,360.2 192.7,282.6 202.3,282.6 226,347.6 249.7,282.6 258.8,282.6 230,360.2 			
				"/>
			<polygon id="Fill-5" points="264.5,360.2 273.5,360.2 273.5,282.6 264.5,282.6 			"/>
			<polyline id="Fill-6" points="295,297.6 295,360.2 286.5,360.2 286.5,282.6 295,282.6 338.2,345.4 338.2,282.6 346.7,282.6 
				346.7,360.2 338.8,360.2 295,297.6 			"/>
			<polyline id="Fill-7" points="399.9,324.6 390,335.6 390,360.2 381,360.2 381,282.6 390,282.6 390,324 426.4,282.6 437.2,282.6 
				406,317.6 437.2,360.2 426.8,360.2 399.9,324.6 			"/>
			<polyline id="Fill-8" points="481.1,360.2 442.3,360.2 442.3,282.6 451.4,282.6 451.4,351.9 481.1,351.9 481.1,360.2 			"/>
			<polyline id="Fill-9" points="486.8,282.6 528.1,282.6 528.1,290.9 495.8,290.9 495.8,316.6 527.3,316.6 527.3,324.9 
				495.8,324.9 495.8,351.9 528.1,351.9 528.1,360.2 486.8,360.2 486.8,282.6 			"/>
			<polygon id="Fill-10" points="539.2,360.2 548.2,360.2 548.2,282.6 539.2,282.6 			"/>
			<polyline id="Fill-11" points="569.5,297.6 569.5,360.2 561.1,360.2 561.1,282.6 569.5,282.6 612.8,345.4 612.8,282.6 
				621.3,282.6 621.3,360.2 613.4,360.2 569.5,297.6 			"/>
		</g>
	</g>
</g>
</svg>
