<?xml version="1.0" encoding="utf-8"?>
<!-- Generator: Adobe Illustrator 19.2.1, SVG Export Plug-In . SVG Version: 6.00 Build 0)  -->
<svg version="1.1" id="layer" xmlns="http://www.w3.org/2000/svg" xmlns:xlink="http://www.w3.org/1999/xlink" x="0px" y="0px"
	 viewBox="0 0 652 652" style="enable-background:new 0 0 652 652;" xml:space="preserve">
<g id="Symbol_4_45" transform="translate(-158 -341)">
	<g id="Group_3" transform="translate(156 -5)">
		<path id="Path_1" d="M241.3,643.8c-3.2-0.4-6.4-0.1-9.5,0.9c-3.6,1.1-5.9,4.6-5.5,8.3v41.7c0,0,0.1,3.8-6,3.8c-6,0-6-3.9-6-3.9
			v-39c0-16.9,13.9-20.3,21-20.3c3.9,0,13.6,0.9,12.3,6.6c-0.3,1.5-1.7,2.5-3.2,2.3c-0.1,0-0.2,0-0.3-0.1
			C243.1,644,242.2,643.9,241.3,643.8z"/>
		<path id="Path_2" d="M193.1,643.8c-3.2-0.4-6.4-0.1-9.5,0.9c-3.6,1.1-5.9,4.6-5.5,8.3v41.7c0,0,0.1,3.8-6,3.8c-6,0-6-3.9-6-3.9
			v-39c0-17.1,13.9-20.3,21-20.3c3.9,0,13.6,0.9,12.3,6.6c-0.3,1.5-1.7,2.5-3.2,2.3c-0.1,0-0.2,0-0.3-0.1
			C195,644,194.1,643.9,193.1,643.8z"/>
		<path id="Path_3" d="M446.7,634.2c-26.4,0-35.3,14.7-35.3,33c0,18.2,8.8,33,35.3,33c27,0,35.9-14.7,35.9-33
			C482.6,648.9,473.7,634.2,446.7,634.2z M447,691.8c-16.6,0-23.9-11.1-23.9-24.7c0-13.6,7.3-24.7,23.9-24.7s23.9,11.1,23.9,24.7
			C470.8,680.8,463.6,691.8,447,691.8L447,691.8z"/>
		<path id="Path_4" d="M76.7,635.8H25.6c-1.7,0-2.6,2-2.6,5s0.9,5,2.6,5h15.8c0,0,3.6,0.3,3.6,3.5v45.4c0,3.9,6,3.9,6,3.9
			s5.8,0,5.8-3.9v-45.4c0-2,1.6-3.5,3.6-3.5c0,0,0.1,0,0.1,0h16.2c1.8,0,2.6-2,2.6-5S78.4,635.8,76.7,635.8z"/>
		<path id="Path_5" d="M144,685.6c-4.4,2.3-11.4,4.4-23.9,4.4c-6.7,0-15.8-1.3-15.8-8c0-5.4-1-7.4,5.4-7.4c2.8,0,15.5-0.3,19.4-0.9
			c6.9-0.9,21.3-4.8,21.3-20.1c0-6.7-5.7-18.8-30.3-18.8c-5.7,0-27.3,0-27.3,25.5v17.9c0,10.5,4.1,20.9,27.3,20.9
			c14.4,0,22.3-3.6,26.4-7.4c1.9-1.8,2.8-3.6,1.5-5.3C147,685.1,145.3,684.7,144,685.6z M120.3,642.8c14.6,0,19.7,4.7,19.7,11.1
			c0,9.5-10.1,11.2-14.3,11.7c-2.3,0.3-13.4,0.6-15,0.6c-6.7,0-6.4-8.3-6.4-8.3C104.1,642.8,117,642.8,120.3,642.8z"/>
		<path id="Path_6" d="M364.7,633.9L364.7,633.9c-17.5,0-31.4,3.4-31.4,20.6v40.1c0,3.9,6,3.9,6,3.9s6,0.1,6-3.9v-41.9
			c0-8.8,9.8-9.9,19.4-9.9c9.6,0,19.4,1.2,19.4,9.9v41.9c0,4.1,6,3.9,6,3.9s6,0,6-3.9v-40.1C396.1,637.3,382.2,633.9,364.7,633.9z"
			/>
		<path id="Path_7" d="M544.6,674.8l-5.8,13.3c-0.4,1-4.8,10.9-14,10.9l0,0c-9.2,0-13.7-9.9-14-10.9l-5.8-13.3l0,0l-8.2-19.3
			l-6-14.3c-1.5-3.5,3.8-5.7,3.8-5.7s5.3-2.3,6.7,1.3l14,33.6l0,0l5.8,13.1c0.7,1.9,2.2,4.1,3.6,4.1c1.5,0,2.9-2.2,3.6-4.1l5.8-13.1
			l14-33.6c1.5-3.5,6.7-1.3,6.7-1.3s5.3,2.2,3.8,5.7l-6,14.2L544.6,674.8z"/>
		<path id="Path_8" d="M287.5,634.8c-4.6-0.1-9.1,0.4-13.6,1.3h-0.1c-1.5,0.3-3,0.7-4.4,1.3c-1.7,0.6-3.3,1.5-4.8,2.6
			c-1.9,1.2-2.6,3.5-1.8,5.5c0.7,1.4,2.5,2,3.9,1.3h0.1c6.6-2.2,13.6-3.2,20.6-2.9c6.7,0,15.3,1.3,15.3,8v3.8
			c-0.1,2.5-1,3.4-5.4,3.4c-2.8,0-15.2,0.3-19.1,0.9c-6.9,0.9-21.3,4.8-21.3,20.1c0,6.7,1.8,18.8,20.9,18.8c0.1,0,23.3-0.1,27-0.1
			h0.4c0.5,0,1.1,0,1.6-0.1c4.1-0.8,7.1-4.4,7.1-8.6v-16.5l0,0v-17.9C314.4,645.2,310.6,634.8,287.5,634.8z M302.9,672.3v4.2l0,0
			v9.2c0,0,0.1,3.4-2.3,3.6l-1.2,0.1l0,0c-2.2,0-18.1,0.1-18.1,0.1c-11.4,0-12.4-5.7-12.4-9.5c0-8.9,8.6-10.6,12.5-11.1
			c2.3-0.1,14.4-0.4,16-0.4C303.1,668.6,302.9,672.3,302.9,672.3z"/>
		<path id="Path_9" d="M596.4,634.8c-4.6-0.1-9.1,0.4-13.6,1.3h-0.1c-1.5,0.3-3,0.7-4.4,1.3c-1.7,0.6-3.3,1.5-4.8,2.6
			c-1.9,1.2-2.6,3.5-1.8,5.5c0.7,1.4,2.5,2,3.9,1.3h0.1c6.6-2.2,13.6-3.2,20.6-2.9c6.7,0,15.3,1.3,15.3,8v3.8
			c-0.1,2.5-1,3.4-5.4,3.4c-2.8,0-15.2,0.3-19.1,0.9c-6.9,0.9-21.3,4.8-21.3,20.1c0,6.7,1.8,18.8,20.9,18.8c0.1,0,23.3-0.1,27-0.1
			h0.4c0.5,0,1.1,0,1.6-0.1c4.1-0.8,7.1-4.4,7.1-8.6v-16.5l0,0v-17.9C623.3,645.2,619.6,634.8,596.4,634.8z M611.9,672.3v4.2l0,0
			v9.2c0,0,0.1,3.4-2.3,3.6l-1.2,0.1l0,0c-2.2,0-18.1,0.1-18.1,0.1c-11.4,0-12.4-5.7-12.4-9.5c0-8.9,8.6-10.6,12.5-11.1
			c2.3-0.1,14.4-0.4,16-0.4C612.2,668.6,611.9,672.3,611.9,672.3L611.9,672.3z"/>
	</g>
</g>
</svg>
